# xmcd
#
# Track frame offsets: 
#        150
#        12175
#        25466
#        35854
#        49080
#        63157
#        75759
#        89298
#        103380
#        115043
#        127099
#        137947
#        149053
#        159659
#        171606
#        180921
#        195497
#        207774
#        220539
#        234482
#
# Disc length: 3267 seconds
#
# Revision: 1
# Processed by: cddbd v1.5.2PL0 Copyright (c) Steve Scherf et al.
# Submitted via: ExactAudioCopy v0.99pb5
#
DISCID=1c0cc114
DTITLE=Ray Charles - The hits of Ray Charles
DYEAR=2007
DGENRE=Jazz
TTITLE0=C.C. Rider
TTITLE1=Baby, Won't You Please Come Home - 
TTITLE2=Sitting on Top of The World
TTITLE3=Don't You Know
TTITLE4=Baby Let Me Hold Your Hand
TTITLE5=Rockin' Chair Blues
TTITLE6=The Midnight Hour
TTITLE7=Kiss Me Baby
TTITLE8=She´s On The Ball
TTITLE9=Mess Around
TTITLE10=I Wonder Who's Kissing Her Now
TTITLE11=A Sentimental Blues
TTITLE12=Hey Now
TTITLE13=Nobody Cares
TTITLE14=All To Myself Alone
TTITLE15=Funny But I Still Love You
TTITLE16=It Should Have Been Me
TTITLE17=Greenbacks
TTITLE18=Come Back Baby
TTITLE19=They're Crazy About Me
EXTD=YEAR: 2007
EXTT0=
EXTT1=
EXTT2=
EXTT3=
EXTT4=
EXTT5=
EXTT6=
EXTT7=
EXTT8=
EXTT9=
EXTT10=
EXTT11=
EXTT12=
EXTT13=
EXTT14=
EXTT15=
EXTT16=
EXTT17=
EXTT18=
EXTT19=
PLAYORDER=
